<svg xmlns="http://www.w3.org/2000/svg" viewBox="0 0 480 320" role="img" aria-label="Archive preview">
  <rect width="480" height="320" fill="#f7f7f8"/>
  <rect x="36" y="38" width="120" height="14" rx="7" fill="#111"/>
  <rect x="36" y="82" width="84" height="176" rx="14" fill="#eceef1"/>
  <rect x="144" y="82" width="84" height="176" rx="14" fill="#eceef1"/>
  <rect x="252" y="82" width="84" height="176" rx="14" fill="#eceef1"/>
  <rect x="360" y="82" width="84" height="176" rx="14" fill="#eceef1"/>
  <rect x="56" y="108" width="44" height="62" rx="20" fill="#111"/>
  <rect x="164" y="108" width="44" height="62" rx="20" fill="#111"/>
  <rect x="272" y="108" width="44" height="62" rx="20" fill="#111"/>
  <rect x="380" y="108" width="44" height="62" rx="20" fill="#111"/>
  <rect x="52" y="218" width="52" height="8" rx="4" fill="#111"/>
  <rect x="160" y="218" width="52" height="8" rx="4" fill="#111"/>
  <rect x="268" y="218" width="52" height="8" rx="4" fill="#111"/>
  <rect x="376" y="218" width="52" height="8" rx="4" fill="#111"/>
</svg>
